<svg xmlns="http://www.w3.org/2000/svg" width="126" height="53" viewBox="0 0 126 53">
  <defs>
    <style>
      .cls-1 {
        fill: #fe3e57;
        fill-rule: evenodd;
      }
    </style>
  </defs>
  <path class="cls-1" d="M1611.52,5721.26a1.74,1.74,0,1,1,1.74,1.74A1.741,1.741,0,0,1,1611.52,5721.26Zm-13.71,0a1.74,1.74,0,1,1,1.74,1.74A1.741,1.741,0,0,1,1597.81,5721.26Zm-13.49,0a1.74,1.74,0,1,1,1.74,1.74A1.741,1.741,0,0,1,1584.32,5721.26Zm-13.71,0a1.74,1.74,0,1,1,1.74,1.74A1.741,1.741,0,0,1,1570.61,5721.26Zm-13.5,0a1.745,1.745,0,1,1,1.74,1.74A1.741,1.741,0,0,1,1557.11,5721.26Zm-13.71,0a1.745,1.745,0,1,1,1.74,1.74A1.741,1.741,0,0,1,1543.4,5721.26Zm-13.49,0a1.74,1.74,0,1,1,1.74,1.74A1.741,1.741,0,0,1,1529.91,5721.26Zm-13.71,0a1.74,1.74,0,1,1,1.74,1.74A1.741,1.741,0,0,1,1516.2,5721.26Zm-13.49,0a1.74,1.74,0,1,1,1.74,1.74A1.741,1.741,0,0,1,1502.71,5721.26Zm-13.71,0a1.74,1.74,0,1,1,1.74,1.74A1.741,1.741,0,0,1,1489,5721.26Zm122.52-16.51a1.74,1.74,0,1,1,1.74,1.74A1.733,1.733,0,0,1,1611.52,5704.75Zm-13.71,0a1.74,1.74,0,1,1,1.74,1.74A1.733,1.733,0,0,1,1597.81,5704.75Zm-13.49,0a1.74,1.74,0,1,1,1.74,1.74A1.733,1.733,0,0,1,1584.32,5704.75Zm-13.71,0a1.74,1.74,0,1,1,1.74,1.74A1.733,1.733,0,0,1,1570.61,5704.75Zm-13.5,0a1.745,1.745,0,1,1,1.74,1.74A1.733,1.733,0,0,1,1557.11,5704.75Zm-13.71,0a1.745,1.745,0,1,1,1.74,1.74A1.733,1.733,0,0,1,1543.4,5704.75Zm-13.49,0a1.74,1.74,0,1,1,1.74,1.74A1.733,1.733,0,0,1,1529.91,5704.75Zm-13.71,0a1.74,1.74,0,1,1,1.74,1.74A1.733,1.733,0,0,1,1516.2,5704.75Zm-13.49,0a1.74,1.74,0,1,1,1.74,1.74A1.733,1.733,0,0,1,1502.71,5704.75Zm-13.71,0a1.74,1.74,0,1,1,1.74,1.74A1.733,1.733,0,0,1,1489,5704.75Zm122.52-16.5a1.74,1.74,0,1,1,1.74,1.73A1.741,1.741,0,0,1,1611.52,5688.25Zm-13.71,0a1.74,1.74,0,1,1,1.74,1.73A1.741,1.741,0,0,1,1597.81,5688.25Zm-13.49,0a1.74,1.74,0,1,1,1.74,1.73A1.741,1.741,0,0,1,1584.32,5688.25Zm-13.71,0a1.74,1.74,0,1,1,1.74,1.73A1.741,1.741,0,0,1,1570.61,5688.25Zm-13.5,0a1.745,1.745,0,1,1,1.74,1.73A1.741,1.741,0,0,1,1557.11,5688.25Zm-13.71,0a1.745,1.745,0,1,1,1.74,1.73A1.741,1.741,0,0,1,1543.4,5688.25Zm-13.49,0a1.74,1.74,0,1,1,1.74,1.73A1.741,1.741,0,0,1,1529.91,5688.25Zm-13.71,0a1.74,1.74,0,1,1,1.74,1.73A1.741,1.741,0,0,1,1516.2,5688.25Zm-13.49,0a1.74,1.74,0,1,1,1.74,1.73A1.741,1.741,0,0,1,1502.71,5688.25Zm-13.71,0a1.74,1.74,0,1,1,1.74,1.73A1.741,1.741,0,0,1,1489,5688.25Zm122.52-16.51a1.74,1.74,0,1,1,1.74,1.74A1.741,1.741,0,0,1,1611.52,5671.74Zm-13.71,0a1.74,1.74,0,1,1,1.74,1.74A1.741,1.741,0,0,1,1597.81,5671.74Zm-13.49,0a1.74,1.74,0,1,1,1.74,1.74A1.741,1.741,0,0,1,1584.32,5671.74Zm-13.71,0a1.74,1.74,0,1,1,1.74,1.74A1.741,1.741,0,0,1,1570.61,5671.74Zm-13.5,0a1.745,1.745,0,1,1,1.74,1.74A1.741,1.741,0,0,1,1557.11,5671.74Zm-13.71,0a1.745,1.745,0,1,1,1.74,1.74A1.741,1.741,0,0,1,1543.4,5671.74Zm-13.49,0a1.74,1.74,0,1,1,1.74,1.74A1.741,1.741,0,0,1,1529.91,5671.74Zm-13.71,0a1.74,1.74,0,1,1,1.74,1.74A1.741,1.741,0,0,1,1516.2,5671.74Zm-13.49,0a1.74,1.74,0,1,1,1.74,1.74A1.741,1.741,0,0,1,1502.71,5671.74Zm-13.71,0a1.74,1.74,0,1,1,1.74,1.74A1.741,1.741,0,0,1,1489,5671.74Z" transform="translate(-1489 -5670)"/>
</svg>
